# xmcd
#
# Track frame offsets:
#	150
#	31334
#	57474
#	77286
#	100245
#	113814
#	133607
#	155326
#	176766
#	196219
#	215845
#	238745
#	261828
#	285704
#	312439
#
# Disc length: 4542 seconds
# Revision: 0
# Processed by: cddbd v1.5.2PL0 Copyright (c) Steve Scherf et al.
# Submitted via: dBpowerAMP V12.0
#
DISCID=d611bc0f
DTITLE=Harper and the Midwest Kind - Live At The Blues Museum
DYEAR=2012
DGENRE=Blues
TTITLE0=Sure There's a Place
TTITLE1=Does Anybody Really Care
TTITLE2=Love, Peace, Freedom 
TTITLE3=One Day
TTITLE4=Well I know
TTITLE5=Glass on the Stepping Stone
TTITLE6=Take These Arms
TTITLE7=Feels Like Sunday Morning
TTITLE8=We Stand Together
TTITLE9=Not  My Brother
TTITLE10=No Problem
TTITLE11=Big Brown Land
TTITLE12=Face the Truth
TTITLE13=A Weaker Man
TTITLE14=I Never Want
EXTD=
EXTT0=
EXTT1=
EXTT2=
EXTT3=
EXTT4=
EXTT5=
EXTT6=
EXTT7=
EXTT8=
EXTT9=
EXTT10=
EXTT11=
EXTT12=
EXTT13=
EXTT14=
PLAYORDER=
